<svg xmlns="http://www.w3.org/2000/svg" xmlns:v="https://svgstorm.com"
viewBox = "0 0 500 500"
width="500"
height="500">
<g fill="None" fill-opacity="0.0" stroke="#000000" stroke-opacity="1.00" stroke-width="0.3"><path d="
M 0.00 500.00 
L 500.00 500.00
L 500.00 0.00
L 0.00 0.00
L 0.00 500.00
M 251.00 131.00 
C 255.18 135.99 260.04 140.89 265.00 145.00
C 260.95 148.22 255.91 159.90 250.75 161.75 C 245.59 163.60 240.35 147.34 235.00 147.00
C 238.87 140.92 244.86 134.49 251.00 131.00
M 249.00 174.00 
C 265.09 160.21 284.27 148.95 306.00 148.00
C 299.59 161.39 290.38 174.29 287.00 189.00
C 301.38 184.66 316.36 180.44 332.00 180.00
C 326.51 188.19 321.10 193.42 316.25 202.25 C 311.39 211.07 307.10 217.68 304.22 228.22 C 301.35 238.76 284.67 234.60 273.00 235.00 C 261.33 235.40 247.27 234.80 235.00 235.00 C 222.73 235.20 208.45 234.85 196.00 235.00
C 193.34 214.16 179.85 196.80 168.00 180.00
C 183.74 180.14 198.46 184.26 213.00 189.00
C 208.60 174.49 200.48 161.54 194.00 148.00
C 214.65 149.37 235.07 158.08 249.00 174.00
M 280.00 248.00 
C 262.06 250.56 238.89 250.16 221.00 248.00
C 213.40 247.85 206.83 245.77 200.00 243.00
C 232.27 241.33 267.81 241.33 300.00 243.00
C 293.39 244.70 287.21 248.31 280.00 248.00
M 297.00 270.00 
C 315.94 274.20 323.84 296.06 309.25 310.25 C 294.65 324.43 272.04 317.49 268.00 298.00
C 267.38 295.01 267.39 292.93 268.00 290.00
C 270.50 277.91 278.40 272.57 290.00 270.00
C 292.74 269.39 294.31 269.40 297.00 270.00
M 60.00 272.00 
C 58.02 272.83 58.96 272.07 58.00 274.00
C 56.64 279.07 57.55 287.74 58.00 293.00 C 58.45 298.26 55.70 308.36 58.00 313.00
C 62.92 319.82 80.83 312.94 80.00 304.00
C 84.57 313.00 79.08 318.73 70.00 317.00 C 60.92 315.27 53.89 318.30 45.00 317.00
C 53.01 315.06 49.87 303.28 50.00 296.00 C 50.13 288.72 51.52 277.81 48.00 272.00
C 46.55 271.87 44.60 272.28 45.00 270.00
C 51.33 270.00 57.67 270.00 64.00 270.00
C 63.51 271.83 61.65 272.18 60.00 272.00
M 100.00 272.00 
C 96.45 275.67 98.19 283.95 98.00 290.00 C 97.81 296.05 97.07 302.85 99.77 308.23 C 102.47 313.61 106.77 315.62 113.00 315.00 C 119.23 314.38 122.00 312.16 123.98 305.98 C 125.95 299.79 123.73 294.03 125.00 287.00 C 126.27 279.97 123.67 276.32 120.00 272.00
C 119.66 271.60 117.01 271.91 118.00 270.00
C 123.33 270.00 128.67 270.00 134.00 270.00
C 134.51 271.41 133.19 272.15 132.00 272.00
C 130.00 274.36 129.14 273.24 128.00 277.00
C 126.57 285.47 128.75 295.09 127.00 303.00
C 123.90 316.98 108.59 323.13 96.25 313.75 C 83.92 304.36 95.24 282.71 88.00 272.00
C 86.55 271.87 84.60 272.28 85.00 270.00
C 91.33 270.00 97.67 270.00 104.00 270.00
C 103.51 271.83 101.65 272.18 100.00 272.00
M 150.00 273.00 
C 153.32 278.09 155.24 286.32 161.00 289.00
C 163.05 283.33 172.03 278.45 168.00 272.00
C 166.55 271.87 164.60 272.28 165.00 270.00
C 170.33 270.00 175.67 270.00 181.00 270.00
C 181.51 271.41 180.19 272.15 179.00 272.00
C 172.79 277.85 164.63 283.16 161.00 292.00
C 168.33 299.26 170.56 313.71 182.00 316.00
C 177.25 318.26 170.51 316.38 165.00 317.00
C 169.39 314.46 164.52 308.54 162.23 305.77 C 159.94 303.00 157.66 295.17 154.00 299.00
C 154.45 289.13 145.02 277.86 137.00 272.00
C 136.58 271.56 134.07 271.94 135.00 270.00
C 140.67 270.00 146.33 270.00 152.00 270.00
C 152.82 272.01 150.18 271.47 150.00 273.00
M 218.00 276.00 
C 218.31 277.61 217.76 279.38 218.00 281.00
C 216.71 280.56 215.79 279.42 216.00 278.00
C 213.36 275.11 212.67 274.11 209.00 273.00
C 207.28 272.73 203.66 272.49 202.00 273.00
C 195.96 276.12 200.31 285.82 199.00 292.00
C 205.07 292.39 211.72 292.43 215.00 287.00
C 215.00 291.33 215.00 295.67 215.00 300.00
C 212.76 293.25 205.25 293.56 199.00 294.00
C 200.45 300.27 195.34 313.53 203.01 314.99 C 210.68 316.45 217.74 312.50 219.00 305.00
C 221.58 308.29 217.70 312.88 219.00 317.00
C 208.00 317.00 197.00 317.00 186.00 317.00
C 187.21 315.31 191.64 316.58 191.00 313.00
C 192.77 307.76 190.98 299.67 191.00 294.00 C 191.02 288.33 192.48 279.52 191.00 274.00
C 190.06 272.10 190.98 272.98 189.00 272.00
C 187.92 271.47 185.33 272.58 186.00 270.00
C 191.84 270.17 199.33 269.78 205.00 270.00 C 210.67 270.22 219.60 267.63 218.00 276.00
M 242.00 272.00 
C 237.16 276.78 239.07 287.42 239.00 295.00 C 238.93 302.58 236.25 314.92 245.00 315.00 C 253.75 315.07 259.84 312.80 261.00 304.00
C 263.21 307.42 261.42 312.82 262.00 317.00
C 250.00 317.00 238.00 317.00 226.00 317.00
C 227.21 315.31 231.64 316.58 231.00 313.00
C 232.77 307.76 230.98 299.67 231.00 294.00 C 231.02 288.33 232.48 279.52 231.00 274.00
C 230.11 272.20 231.07 272.77 229.00 272.00
C 227.59 271.47 224.44 272.96 225.00 270.00
C 231.67 270.00 238.33 270.00 245.00 270.00
C 245.64 272.03 243.31 272.06 242.00 272.00
M 366.00 283.00 
C 357.36 260.91 332.12 273.44 333.00 294.00 C 333.88 314.56 356.96 325.35 368.00 305.00
C 368.21 308.46 366.30 311.40 367.00 315.00
C 354.14 320.26 338.99 318.71 329.70 308.30 C 320.40 297.89 324.28 281.99 334.75 274.75 C 345.21 267.50 371.75 265.42 366.00 283.00
M 389.00 272.00 
C 384.40 276.65 388.30 285.76 387.00 292.00
C 391.78 286.16 405.41 278.96 402.00 272.00
C 400.55 271.87 398.60 272.28 399.00 270.00
C 405.33 270.00 411.67 270.00 418.00 270.00
C 418.51 271.41 417.19 272.15 416.00 272.00
C 412.54 273.96 406.46 273.59 403.75 277.75 C 401.05 281.91 397.17 283.65 394.00 287.00
C 401.60 296.64 407.61 312.00 420.00 316.00
C 403.16 323.33 398.46 301.01 388.00 293.00
C 387.56 300.23 383.09 314.73 392.00 317.00
C 386.00 317.00 380.00 317.00 374.00 317.00
C 375.21 315.31 379.64 316.58 379.00 313.00
C 380.86 307.48 378.65 299.97 379.00 294.00 C 379.35 288.03 379.74 280.02 379.00 274.00
C 378.87 272.94 379.14 272.45 378.00 272.00
C 376.61 271.45 373.42 272.97 374.00 270.00
C 380.33 270.00 386.67 270.00 393.00 270.00
C 393.63 272.53 390.47 271.90 389.00 272.00
M 426.00 311.00 
C 425.57 309.35 423.11 300.67 427.00 303.00
C 431.38 305.63 432.56 319.58 442.00 316.00 C 451.44 312.42 447.74 304.64 442.75 299.25 C 437.76 293.86 430.94 293.68 427.70 286.30 C 424.45 278.93 429.54 270.87 438.02 270.02 C 446.51 269.18 457.04 272.17 451.00 283.00
C 451.36 265.14 426.80 272.22 433.78 283.22 C 440.76 294.22 455.99 293.63 453.67 307.67 C 451.35 321.71 428.35 320.77 426.00 311.00
M 154.00 300.00 
C 151.27 304.98 142.68 312.45 150.00 317.00
C 145.17 316.35 139.01 318.31 135.00 316.00
C 144.35 315.50 146.76 303.21 154.00 300.00
M 250.00 338.00 
C 251.99 343.52 254.41 341.22 258.74 343.26 C 263.07 345.29 259.25 352.62 255.00 349.00
C 256.82 348.75 260.68 343.90 255.97 344.03 C 251.26 344.16 251.66 350.56 251.00 353.00
C 258.75 348.55 257.03 361.41 252.00 354.00
C 248.83 358.25 253.80 361.86 256.00 365.00
C 253.30 365.60 251.17 363.03 250.00 361.00
C 247.46 362.14 246.31 365.83 243.00 365.00
C 249.85 361.73 247.27 349.88 243.00 357.00
C 239.73 353.48 245.15 350.19 248.00 353.00
C 250.40 344.13 235.11 342.69 244.00 349.00
C 234.23 352.57 238.92 336.87 247.00 343.00
C 247.27 341.17 248.02 338.70 250.00 338.00
M 237.00 355.00 
C 236.77 354.94 235.89 355.38 235.00 355.00
C 229.10 352.49 224.17 350.47 217.78 351.78 C 211.39 353.08 206.57 360.27 216.00 360.00
C 212.50 352.90 222.86 359.36 215.97 361.97 C 209.08 364.58 207.57 356.81 211.00 353.00
C 205.89 353.94 202.35 358.63 197.00 359.00
C 204.07 352.28 213.75 348.06 224.00 349.00
C 223.77 348.86 224.00 348.00 224.00 348.00
C 211.15 346.84 196.61 352.52 185.78 355.78 C 174.94 359.03 158.82 338.08 155.00 356.00
C 150.45 353.81 155.22 347.64 159.00 348.00
C 160.03 347.64 164.13 345.93 165.00 346.00
C 156.47 343.99 148.97 347.28 150.00 356.00 C 151.03 364.72 166.56 362.67 159.00 357.00
C 170.80 359.21 157.63 367.45 151.77 362.23 C 145.91 357.00 145.08 350.19 151.75 345.75 C 158.42 341.32 167.19 344.45 173.00 348.00
C 170.87 338.66 187.95 336.69 186.00 347.00
C 184.49 337.08 169.51 344.17 176.25 350.75 C 183.00 357.32 190.50 351.60 197.68 349.68 C 204.85 347.76 215.37 344.60 223.00 346.00 C 230.63 347.40 237.48 349.53 240.32 356.68 C 243.16 363.83 236.17 374.39 226.93 369.07 C 217.68 363.76 234.73 351.22 234.00 365.00
C 231.03 355.32 221.62 366.03 230.03 367.97 C 238.44 369.92 241.53 359.08 237.00 355.00
M 324.00 342.00 
C 325.81 343.24 326.21 345.81 326.00 348.00
C 331.98 344.81 339.96 341.54 346.69 345.31 C 353.43 349.07 353.35 356.04 347.75 361.75 C 342.16 367.46 327.91 359.72 340.00 357.00
C 332.77 362.97 347.16 364.19 349.25 356.25 C 351.35 348.32 343.02 343.75 335.00 346.00
C 335.49 346.12 336.58 347.83 337.00 348.00
C 340.99 348.57 349.65 351.12 344.00 356.00
C 343.67 344.59 326.10 349.14 320.00 355.00
C 316.96 356.15 314.91 355.68 312.00 355.00
C 300.42 352.31 290.74 347.13 278.00 348.00
C 277.96 348.00 278.00 349.00 278.00 349.00
C 287.01 348.81 295.92 352.65 302.00 359.00
C 297.02 357.95 293.00 354.06 288.00 353.00
C 296.47 360.15 278.61 368.23 280.00 357.00
C 283.95 356.85 285.23 356.72 283.00 360.00
C 291.90 361.48 287.68 352.43 281.77 351.23 C 275.86 350.03 268.94 351.79 264.00 355.00
C 263.30 355.29 261.93 355.02 262.00 355.00
C 259.29 359.56 258.96 368.91 268.01 367.99 C 277.05 367.07 269.61 355.41 265.00 365.00
C 264.11 351.28 281.55 362.73 271.77 368.77 C 261.99 374.81 254.29 361.35 259.31 354.31 C 264.33 347.26 274.80 345.38 283.00 346.00 C 291.20 346.62 301.50 348.28 309.02 351.98 C 316.55 355.67 329.84 350.88 321.00 342.00
C 316.42 342.60 313.79 343.07 313.00 348.00
C 308.83 341.80 320.77 336.58 324.00 342.00 Z"/>
</g>
<g fill="None" fill-opacity="0.0" stroke="#967939" stroke-opacity="1.00" stroke-width="0.3"><path d="
M 251.00 131.00 
C 244.86 134.49 238.87 140.92 235.00 147.00
C 240.35 147.34 245.59 163.60 250.75 161.75 C 255.91 159.90 260.95 148.22 265.00 145.00
C 260.04 140.89 255.18 135.99 251.00 131.00
M 251.00 141.00 
C 252.26 142.93 254.00 144.91 256.00 146.00
C 254.89 148.41 252.04 149.62 251.00 152.00
C 247.85 152.04 246.70 147.98 244.00 147.00
C 245.89 144.73 247.89 141.34 251.00 141.00 Z"/>
</g>
<g fill="None" fill-opacity="0.0" stroke="#0C0301" stroke-opacity="1.00" stroke-width="0.3"><path d="
M 251.00 141.00 
C 247.89 141.34 245.89 144.73 244.00 147.00
C 246.70 147.98 247.85 152.04 251.00 152.00
C 252.04 149.62 254.89 148.41 256.00 146.00
C 254.00 144.91 252.26 142.93 251.00 141.00 Z"/>
</g>
<g fill="None" fill-opacity="0.0" stroke="#977939" stroke-opacity="1.00" stroke-width="0.3"><path d="
M 249.00 174.00 
C 235.07 158.08 214.65 149.37 194.00 148.00
C 200.48 161.54 208.60 174.49 213.00 189.00
C 198.46 184.26 183.74 180.14 168.00 180.00
C 179.85 196.80 193.34 214.16 196.00 235.00
C 208.45 234.85 222.73 235.20 235.00 235.00 C 247.27 234.80 261.33 235.40 273.00 235.00 C 284.67 234.60 301.35 238.76 304.22 228.22 C 307.10 217.68 311.39 211.07 316.25 202.25 C 321.10 193.42 326.51 188.19 332.00 180.00
C 316.36 180.44 301.38 184.66 287.00 189.00
C 290.38 174.29 299.59 161.39 306.00 148.00
C 284.27 148.95 265.09 160.21 249.00 174.00
M 231.00 201.00 
C 216.24 191.16 215.49 171.61 207.00 157.00
C 220.13 159.50 227.80 165.41 239.08 172.92 C 250.37 180.42 235.64 192.54 231.00 201.00
M 293.00 157.00 
C 284.04 171.38 283.94 192.11 268.00 201.00
C 263.94 191.22 249.83 180.81 261.23 173.23 C 272.63 165.65 279.51 159.12 293.00 157.00
M 251.00 224.00 
C 244.92 220.58 245.40 215.58 239.75 210.25 C 234.09 204.93 241.76 200.13 243.77 193.77 C 245.78 187.41 252.89 184.71 255.25 191.75 C 257.61 198.79 264.61 202.46 261.74 208.74 C 258.88 215.03 252.75 217.22 251.00 224.00
M 221.00 228.00 
C 212.94 224.11 203.35 235.19 200.07 222.93 C 196.80 210.66 189.02 198.68 182.00 188.00
C 192.20 189.94 203.57 190.79 212.69 196.31 C 221.82 201.82 219.21 218.48 221.00 228.00
M 318.00 188.00 
C 309.67 200.43 301.67 213.50 298.00 228.00
C 291.67 228.00 285.33 228.00 279.00 228.00
C 280.75 218.59 277.63 202.46 286.70 196.70 C 295.76 190.94 307.78 190.48 318.00 188.00
M 273.00 213.00 
C 270.73 209.73 271.03 206.60 274.00 204.00
C 275.90 206.15 274.04 210.84 273.00 213.00
M 226.00 213.00 
C 226.03 210.26 224.37 207.92 225.00 205.00
C 229.16 206.47 229.16 210.69 226.00 213.00
M 234.00 213.00 
C 236.90 218.31 241.58 222.43 244.00 228.00
C 239.00 228.00 234.00 228.00 229.00 228.00
C 229.93 222.89 231.67 217.36 234.00 213.00
M 267.00 215.00 
C 267.96 219.43 270.03 223.54 271.00 228.00
C 266.00 228.00 261.00 228.00 256.00 228.00
C 259.05 223.45 261.57 216.92 267.00 215.00 Z"/>
</g>
<g fill="None" fill-opacity="0.0" stroke="#030201" stroke-opacity="1.00" stroke-width="0.3"><path d="
M 231.00 201.00 
C 235.64 192.54 250.37 180.42 239.08 172.92 C 227.80 165.41 220.13 159.50 207.00 157.00
C 215.49 171.61 216.24 191.16 231.00 201.00 Z"/>
</g>
<g fill="None" fill-opacity="0.0" stroke="#030201" stroke-opacity="1.00" stroke-width="0.3"><path d="
M 293.00 157.00 
C 279.51 159.12 272.63 165.65 261.23 173.23 C 249.83 180.81 263.94 191.22 268.00 201.00
C 283.94 192.11 284.04 171.38 293.00 157.00 Z"/>
</g>
<g fill="None" fill-opacity="0.0" stroke="#040201" stroke-opacity="1.00" stroke-width="0.3"><path d="
M 251.00 224.00 
C 252.75 217.22 258.88 215.03 261.74 208.74 C 264.61 202.46 257.61 198.79 255.25 191.75 C 252.89 184.71 245.78 187.41 243.77 193.77 C 241.76 200.13 234.09 204.93 239.75 210.25 C 245.40 215.58 244.92 220.58 251.00 224.00 Z"/>
</g>
<g fill="None" fill-opacity="0.0" stroke="#020101" stroke-opacity="1.00" stroke-width="0.3"><path d="
M 221.00 228.00 
C 219.21 218.48 221.82 201.82 212.69 196.31 C 203.57 190.79 192.20 189.94 182.00 188.00
C 189.02 198.68 196.80 210.66 200.07 222.93 C 203.35 235.19 212.94 224.11 221.00 228.00 Z"/>
</g>
<g fill="None" fill-opacity="0.0" stroke="#030101" stroke-opacity="1.00" stroke-width="0.3"><path d="
M 318.00 188.00 
C 307.78 190.48 295.76 190.94 286.70 196.70 C 277.63 202.46 280.75 218.59 279.00 228.00
C 285.33 228.00 291.67 228.00 298.00 228.00
C 301.67 213.50 309.67 200.43 318.00 188.00 Z"/>
</g>
<g fill="None" fill-opacity="0.0" stroke="#381D03" stroke-opacity="1.00" stroke-width="0.3"><path d="
M 273.00 213.00 
C 274.04 210.84 275.90 206.15 274.00 204.00
C 271.03 206.60 270.73 209.73 273.00 213.00 Z"/>
</g>
<g fill="None" fill-opacity="0.0" stroke="#281001" stroke-opacity="1.00" stroke-width="0.3"><path d="
M 226.00 213.00 
C 229.16 210.69 229.16 206.47 225.00 205.00
C 224.37 207.92 226.03 210.26 226.00 213.00 Z"/>
</g>
<g fill="None" fill-opacity="0.0" stroke="#0B0301" stroke-opacity="1.00" stroke-width="0.3"><path d="
M 234.00 213.00 
C 231.67 217.36 229.93 222.89 229.00 228.00
C 234.00 228.00 239.00 228.00 244.00 228.00
C 241.58 222.43 236.90 218.31 234.00 213.00 Z"/>
</g>
<g fill="None" fill-opacity="0.0" stroke="#0C0201" stroke-opacity="1.00" stroke-width="0.3"><path d="
M 267.00 215.00 
C 261.57 216.92 259.05 223.45 256.00 228.00
C 261.00 228.00 266.00 228.00 271.00 228.00
C 270.03 223.54 267.96 219.43 267.00 215.00 Z"/>
</g>
<g fill="None" fill-opacity="0.0" stroke="#9B7D38" stroke-opacity="1.00" stroke-width="0.3"><path d="
M 221.00 248.00 
C 240.55 248.39 260.46 248.75 280.00 248.00
C 287.21 248.31 293.39 244.70 300.00 243.00
C 267.81 241.33 232.27 241.33 200.00 243.00
C 206.83 245.77 213.40 247.85 221.00 248.00 Z"/>
</g>
<g fill="None" fill-opacity="0.0" stroke="#544125" stroke-opacity="1.00" stroke-width="0.3"><path d="
M 280.00 248.00 
C 260.46 248.75 240.55 248.39 221.00 248.00
C 238.89 250.16 262.06 250.56 280.00 248.00 Z"/>
</g>
<g fill="None" fill-opacity="0.0" stroke="#311F01" stroke-opacity="1.00" stroke-width="0.3"><path d="
M 290.00 270.00 
C 292.19 269.79 294.81 269.79 297.00 270.00
C 294.31 269.40 292.74 269.39 290.00 270.00 Z"/>
</g>
<g fill="None" fill-opacity="0.0" stroke="#4F411F" stroke-opacity="1.00" stroke-width="0.3"><path d="
M 48.00 272.00 
C 50.05 272.18 57.97 272.11 60.00 272.00
C 61.65 272.18 63.51 271.83 64.00 270.00
C 57.67 270.00 51.33 270.00 45.00 270.00
C 44.60 272.28 46.55 271.87 48.00 272.00 Z"/>
</g>
<g fill="None" fill-opacity="0.0" stroke="#4E411F" stroke-opacity="1.00" stroke-width="0.3"><path d="
M 88.00 272.00 
C 90.05 272.18 97.97 272.11 100.00 272.00
C 101.65 272.18 103.51 271.83 104.00 270.00
C 97.67 270.00 91.33 270.00 85.00 270.00
C 84.60 272.28 86.55 271.87 88.00 272.00 Z"/>
</g>
<g fill="None" fill-opacity="0.0" stroke="#4C4018" stroke-opacity="1.00" stroke-width="0.3"><path d="
M 120.00 272.00 
C 121.00 272.16 131.08 272.15 132.00 272.00
C 133.19 272.15 134.51 271.41 134.00 270.00
C 128.67 270.00 123.33 270.00 118.00 270.00
C 117.01 271.91 119.66 271.60 120.00 272.00 Z"/>
</g>
<g fill="None" fill-opacity="0.0" stroke="#4D401B" stroke-opacity="1.00" stroke-width="0.3"><path d="
M 137.00 272.00 
C 141.46 272.71 147.25 268.78 150.00 273.00
C 150.18 271.47 152.82 272.01 152.00 270.00
C 146.33 270.00 140.67 270.00 135.00 270.00
C 134.07 271.94 136.58 271.56 137.00 272.00 Z"/>
</g>
<g fill="None" fill-opacity="0.0" stroke="#4E401C" stroke-opacity="1.00" stroke-width="0.3"><path d="
M 168.00 272.00 
C 169.20 272.11 178.01 272.16 179.00 272.00
C 180.19 272.15 181.51 271.41 181.00 270.00
C 175.67 270.00 170.33 270.00 165.00 270.00
C 164.60 272.28 166.55 271.87 168.00 272.00 Z"/>
</g>
<g fill="None" fill-opacity="0.0" stroke="#665322" stroke-opacity="1.00" stroke-width="0.3"><path d="
M 189.00 272.00 
C 197.16 272.72 208.02 269.38 217.00 271.00
C 217.00 272.67 217.00 274.33 217.00 276.00
C 217.20 275.76 218.00 276.00 218.00 276.00
C 219.60 267.63 210.67 270.22 205.00 270.00 C 199.33 269.78 191.84 270.17 186.00 270.00
C 185.33 272.58 187.92 271.47 189.00 272.00 Z"/>
</g>
<g fill="None" fill-opacity="0.0" stroke="#483D1A" stroke-opacity="1.00" stroke-width="0.3"><path d="
M 229.00 272.00 
C 231.53 272.10 239.63 272.21 242.00 272.00
C 243.31 272.06 245.64 272.03 245.00 270.00
C 238.33 270.00 231.67 270.00 225.00 270.00
C 224.44 272.96 227.59 271.47 229.00 272.00 Z"/>
</g>
<g fill="None" fill-opacity="0.0" stroke="#B69448" stroke-opacity="1.00" stroke-width="0.3"><path d="
M 268.00 290.00 
C 267.77 292.52 267.77 295.48 268.00 298.00
C 272.04 317.49 294.65 324.43 309.25 310.25 C 323.84 296.06 315.94 274.20 297.00 270.00
C 294.81 269.79 292.19 269.79 290.00 270.00
C 278.40 272.57 270.50 277.91 268.00 290.00
M 276.00 296.00 
C 275.43 292.81 275.49 290.11 276.00 287.00
C 276.81 272.04 294.92 267.32 303.25 277.75 C 311.58 288.18 313.31 303.73 302.25 313.25 C 291.18 322.77 276.83 308.13 276.00 296.00 Z"/>
</g>
<g fill="None" fill-opacity="0.0" stroke="#AE9149" stroke-opacity="1.00" stroke-width="0.3"><path d="
M 366.00 283.00 
C 371.75 265.42 345.21 267.50 334.75 274.75 C 324.28 281.99 320.40 297.89 329.70 308.30 C 338.99 318.71 354.14 320.26 367.00 315.00
C 366.30 311.40 368.21 308.46 368.00 305.00
C 356.96 325.35 333.88 314.56 333.00 294.00 C 332.12 273.44 357.36 260.91 366.00 283.00 Z"/>
</g>
<g fill="None" fill-opacity="0.0" stroke="#514523" stroke-opacity="1.00" stroke-width="0.3"><path d="
M 378.00 272.00 
C 380.15 272.08 386.92 272.08 389.00 272.00
C 390.47 271.90 393.63 272.53 393.00 270.00
C 386.67 270.00 380.33 270.00 374.00 270.00
C 373.42 272.97 376.61 271.45 378.00 272.00 Z"/>
</g>
<g fill="None" fill-opacity="0.0" stroke="#4C401B" stroke-opacity="1.00" stroke-width="0.3"><path d="
M 402.00 272.00 
C 404.07 272.18 414.15 272.30 416.00 272.00
C 417.19 272.15 418.51 271.41 418.00 270.00
C 411.67 270.00 405.33 270.00 399.00 270.00
C 398.60 272.28 400.55 271.87 402.00 272.00 Z"/>
</g>
<g fill="None" fill-opacity="0.0" stroke="#B4944B" stroke-opacity="1.00" stroke-width="0.3"><path d="
M 427.00 303.00 
C 425.55 304.70 425.67 308.59 426.00 311.00
C 428.35 320.77 451.35 321.71 453.67 307.67 C 455.99 293.63 440.76 294.22 433.78 283.22 C 426.80 272.22 451.36 265.14 451.00 283.00
C 457.04 272.17 446.51 269.18 438.02 270.02 C 429.54 270.87 424.45 278.93 427.70 286.30 C 430.94 293.68 437.76 293.86 442.75 299.25 C 447.74 304.64 451.44 312.42 442.00 316.00 C 432.56 319.58 431.38 305.63 427.00 303.00 Z"/>
</g>
<g fill="None" fill-opacity="0.0" stroke="#B8944B" stroke-opacity="1.00" stroke-width="0.3"><path d="
M 48.00 272.00 
C 51.52 277.81 50.13 288.72 50.00 296.00 C 49.87 303.28 53.01 315.06 45.00 317.00
C 53.89 318.30 60.92 315.27 70.00 317.00 C 79.08 318.73 84.57 313.00 80.00 304.00
C 80.83 312.94 62.92 319.82 58.00 313.00
C 55.00 308.85 57.20 299.48 57.00 294.00 C 56.80 288.52 55.71 278.61 58.00 274.00
C 58.96 272.07 58.02 272.83 60.00 272.00
C 57.97 272.11 50.05 272.18 48.00 272.00 Z"/>
</g>
<g fill="None" fill-opacity="0.0" stroke="#AF8F48" stroke-opacity="1.00" stroke-width="0.3"><path d="
M 88.00 272.00 
C 95.24 282.71 83.92 304.36 96.25 313.75 C 108.59 323.13 123.90 316.98 127.00 303.00
C 127.88 294.47 125.65 284.74 128.00 277.00
C 129.14 273.24 130.00 274.36 132.00 272.00
C 131.08 272.15 121.00 272.16 120.00 272.00
C 123.67 276.32 126.27 279.97 125.00 287.00 C 123.73 294.03 125.95 299.79 123.98 305.98 C 122.00 312.16 119.23 314.38 113.00 315.00 C 106.77 315.62 102.47 313.61 99.77 308.23 C 97.07 302.85 97.81 296.05 98.00 290.00 C 98.19 283.95 96.45 275.67 100.00 272.00
C 97.97 272.11 90.05 272.18 88.00 272.00 Z"/>
</g>
<g fill="None" fill-opacity="0.0" stroke="#B5934A" stroke-opacity="1.00" stroke-width="0.3"><path d="
M 137.00 272.00 
C 145.02 277.86 154.45 289.13 154.00 299.00
C 157.66 295.17 159.94 303.00 162.23 305.77 C 164.52 308.54 169.39 314.46 165.00 317.00
C 170.51 316.38 177.25 318.26 182.00 316.00
C 170.56 313.71 168.33 299.26 161.00 292.00
C 164.63 283.16 172.79 277.85 179.00 272.00
C 178.01 272.16 169.20 272.11 168.00 272.00
C 172.03 278.45 163.05 283.33 161.00 289.00
C 155.24 286.32 153.32 278.09 150.00 273.00
C 147.25 268.78 141.46 272.71 137.00 272.00 Z"/>
</g>
<g fill="None" fill-opacity="0.0" stroke="#B3944B" stroke-opacity="1.00" stroke-width="0.3"><path d="
M 189.00 272.00 
C 190.98 272.98 190.06 272.10 191.00 274.00
C 193.39 278.82 192.09 287.19 192.00 293.00 C 191.91 298.81 193.50 308.16 191.00 313.00
C 191.64 316.58 187.21 315.31 186.00 317.00
C 197.00 317.00 208.00 317.00 219.00 317.00
C 217.70 312.88 221.58 308.29 219.00 305.00
C 217.74 312.50 210.68 316.45 203.01 314.99 C 195.34 313.53 200.45 300.27 199.00 294.00
C 205.25 293.56 212.76 293.25 215.00 300.00
C 215.00 295.67 215.00 291.33 215.00 287.00
C 211.72 292.43 205.07 292.39 199.00 292.00
C 200.31 285.82 195.96 276.12 202.00 273.00
C 204.67 271.62 206.45 272.23 209.00 273.00
C 212.67 274.11 213.36 275.11 216.00 278.00
C 215.95 278.69 217.28 275.65 217.00 276.00
C 217.00 274.33 217.00 272.67 217.00 271.00
C 208.02 269.38 197.16 272.72 189.00 272.00 Z"/>
</g>
<g fill="None" fill-opacity="0.0" stroke="#B6954A" stroke-opacity="1.00" stroke-width="0.3"><path d="
M 229.00 272.00 
C 231.07 272.77 230.11 272.20 231.00 274.00
C 233.39 278.82 232.09 287.19 232.00 293.00 C 231.91 298.81 233.50 308.16 231.00 313.00
C 231.64 316.58 227.21 315.31 226.00 317.00
C 238.00 317.00 250.00 317.00 262.00 317.00
C 261.42 312.82 263.21 307.42 261.00 304.00
C 259.84 312.80 253.75 315.07 245.00 315.00 C 236.25 314.92 238.93 302.58 239.00 295.00 C 239.07 287.42 237.16 276.78 242.00 272.00
C 239.63 272.21 231.53 272.10 229.00 272.00 Z"/>
</g>
<g fill="None" fill-opacity="0.0" stroke="#B6964B" stroke-opacity="1.00" stroke-width="0.3"><path d="
M 378.00 272.00 
C 379.14 272.45 378.87 272.94 379.00 274.00
C 381.07 279.07 380.23 287.06 380.00 293.00 C 379.77 298.94 381.57 308.03 379.00 313.00
C 379.64 316.58 375.21 315.31 374.00 317.00
C 380.00 317.00 386.00 317.00 392.00 317.00
C 383.09 314.73 387.56 300.23 388.00 293.00
C 398.46 301.01 403.16 323.33 420.00 316.00
C 407.61 312.00 401.60 296.64 394.00 287.00
C 397.17 283.65 401.05 281.91 403.75 277.75 C 406.46 273.59 412.54 273.96 416.00 272.00
C 414.15 272.30 404.07 272.18 402.00 272.00
C 405.41 278.96 391.78 286.16 387.00 292.00
C 388.30 285.76 384.40 276.65 389.00 272.00
C 386.92 272.08 380.15 272.08 378.00 272.00 Z"/>
</g>
<g fill="None" fill-opacity="0.0" stroke="#584F28" stroke-opacity="1.00" stroke-width="0.3"><path d="
M 202.00 273.00 
C 203.66 272.49 207.28 272.73 209.00 273.00
C 206.45 272.23 204.67 271.62 202.00 273.00 Z"/>
</g>
<g fill="None" fill-opacity="0.0" stroke="#010101" stroke-opacity="1.00" stroke-width="0.3"><path d="
M 276.00 287.00 
C 275.84 289.92 275.80 293.08 276.00 296.00
C 276.83 308.13 291.18 322.77 302.25 313.25 C 313.31 303.73 311.58 288.18 303.25 277.75 C 294.92 267.32 276.81 272.04 276.00 287.00 Z"/>
</g>
<g fill="None" fill-opacity="0.0" stroke="#57450D" stroke-opacity="1.00" stroke-width="0.3"><path d="
M 58.00 313.00 
C 55.70 308.36 58.45 298.26 58.00 293.00 C 57.55 287.74 56.64 279.07 58.00 274.00
C 55.71 278.61 56.80 288.52 57.00 294.00 C 57.20 299.48 55.00 308.85 58.00 313.00 Z"/>
</g>
<g fill="None" fill-opacity="0.0" stroke="#5D4E2A" stroke-opacity="1.00" stroke-width="0.3"><path d="
M 191.00 313.00 
C 193.50 308.16 191.91 298.81 192.00 293.00 C 192.09 287.19 193.39 278.82 191.00 274.00
C 192.48 279.52 191.02 288.33 191.00 294.00 C 190.98 299.67 192.77 307.76 191.00 313.00 Z"/>
</g>
<g fill="None" fill-opacity="0.0" stroke="#634C23" stroke-opacity="1.00" stroke-width="0.3"><path d="
M 231.00 313.00 
C 233.50 308.16 231.91 298.81 232.00 293.00 C 232.09 287.19 233.39 278.82 231.00 274.00
C 232.48 279.52 231.02 288.33 231.00 294.00 C 230.98 299.67 232.77 307.76 231.00 313.00 Z"/>
</g>
<g fill="None" fill-opacity="0.0" stroke="#52401C" stroke-opacity="1.00" stroke-width="0.3"><path d="
M 379.00 313.00 
C 381.57 308.03 379.77 298.94 380.00 293.00 C 380.23 287.06 381.07 279.07 379.00 274.00
C 379.74 280.02 379.35 288.03 379.00 294.00 C 378.65 299.97 380.86 307.48 379.00 313.00 Z"/>
</g>
<g fill="None" fill-opacity="0.0" stroke="#7D7351" stroke-opacity="1.00" stroke-width="0.3"><path d="
M 216.00 278.00 
C 215.79 279.42 216.71 280.56 218.00 281.00
C 217.76 279.38 218.31 277.61 218.00 276.00
C 218.00 276.00 217.20 275.76 217.00 276.00
C 217.28 275.65 215.95 278.69 216.00 278.00 Z"/>
</g>
<g fill="None" fill-opacity="0.0" stroke="#453000" stroke-opacity="1.00" stroke-width="0.3"><path d="
M 127.00 303.00 
C 128.75 295.09 126.57 285.47 128.00 277.00
C 125.65 284.74 127.88 294.47 127.00 303.00 Z"/>
</g>
<g fill="None" fill-opacity="0.0" stroke="#624C1A" stroke-opacity="1.00" stroke-width="0.3"><path d="
M 276.00 296.00 
C 275.80 293.08 275.84 289.92 276.00 287.00
C 275.49 290.11 275.43 292.81 276.00 296.00 Z"/>
</g>
<g fill="None" fill-opacity="0.0" stroke="#614A28" stroke-opacity="1.00" stroke-width="0.3"><path d="
M 268.00 298.00 
C 267.77 295.48 267.77 292.52 268.00 290.00
C 267.39 292.93 267.38 295.01 268.00 298.00 Z"/>
</g>
<g fill="None" fill-opacity="0.0" stroke="#A48D59" stroke-opacity="1.00" stroke-width="0.3"><path d="
M 154.00 300.00 
C 146.76 303.21 144.35 315.50 135.00 316.00
C 139.01 318.31 145.17 316.35 150.00 317.00
C 142.68 312.45 151.27 304.98 154.00 300.00 Z"/>
</g>
<g fill="None" fill-opacity="0.0" stroke="#382816" stroke-opacity="1.00" stroke-width="0.3"><path d="
M 426.00 311.00 
C 425.67 308.59 425.55 304.70 427.00 303.00
C 423.11 300.67 425.57 309.35 426.00 311.00 Z"/>
</g>
<g fill="None" fill-opacity="0.0" stroke="#A08850" stroke-opacity="1.00" stroke-width="0.3"><path d="
M 250.00 338.00 
C 248.02 338.70 247.27 341.17 247.00 343.00
C 238.92 336.87 234.23 352.57 244.00 349.00
C 235.11 342.69 250.40 344.13 248.00 353.00
C 245.15 350.19 239.73 353.48 243.00 357.00
C 247.27 349.88 249.85 361.73 243.00 365.00
C 246.31 365.83 247.46 362.14 250.00 361.00
C 251.17 363.03 253.30 365.60 256.00 365.00
C 253.80 361.86 248.83 358.25 252.00 354.00
C 257.03 361.41 258.75 348.55 251.00 353.00
C 251.66 350.56 251.26 344.16 255.97 344.03 C 260.68 343.90 256.82 348.75 255.00 349.00
C 259.25 352.62 263.07 345.29 258.74 343.26 C 254.41 341.22 251.99 343.52 250.00 338.00
M 250.00 342.00 
C 252.33 342.39 252.29 348.00 249.25 347.59 C 246.21 347.18 247.27 341.54 250.00 342.00 Z"/>
</g>
<g fill="None" fill-opacity="0.0" stroke="#9A8A52" stroke-opacity="1.00" stroke-width="0.3"><path d="
M 165.00 346.00 
C 166.04 346.24 167.56 347.07 168.00 348.00
C 165.00 348.00 162.00 348.00 159.00 348.00
C 155.22 347.64 150.45 353.81 155.00 356.00
C 158.82 338.08 174.94 359.03 185.78 355.78 C 196.61 352.52 211.15 346.84 224.00 348.00
C 229.47 348.54 234.10 350.36 237.00 355.00
C 241.53 359.08 238.44 369.92 230.03 367.97 C 221.62 366.03 231.03 355.32 234.00 365.00
C 234.73 351.22 217.68 363.76 226.93 369.07 C 236.17 374.39 243.16 363.83 240.32 356.68 C 237.48 349.53 230.63 347.40 223.00 346.00 C 215.37 344.60 204.85 347.76 197.68 349.68 C 190.50 351.60 183.00 357.32 176.25 350.75 C 169.51 344.17 184.49 337.08 186.00 347.00
C 187.95 336.69 170.87 338.66 173.00 348.00
C 167.19 344.45 158.42 341.32 151.75 345.75 C 145.08 350.19 145.91 357.00 151.77 362.23 C 157.63 367.45 170.80 359.21 159.00 357.00
C 166.56 362.67 151.03 364.72 150.00 356.00 C 148.97 347.28 156.47 343.99 165.00 346.00 Z"/>
</g>
<g fill="None" fill-opacity="0.0" stroke="#6B6544" stroke-opacity="1.00" stroke-width="0.3"><path d="
M 321.00 342.00 
C 322.15 341.85 322.32 340.85 324.00 342.00
C 320.77 336.58 308.83 341.80 313.00 348.00
C 313.79 343.07 316.42 342.60 321.00 342.00 Z"/>
</g>
<g fill="None" fill-opacity="0.0" stroke="#9E8A53" stroke-opacity="1.00" stroke-width="0.3"><path d="
M 321.00 342.00 
C 329.84 350.88 316.55 355.67 309.02 351.98 C 301.50 348.28 291.20 346.62 283.00 346.00 C 274.80 345.38 264.33 347.26 259.31 354.31 C 254.29 361.35 261.99 374.81 271.77 368.77 C 281.55 362.73 264.11 351.28 265.00 365.00
C 269.61 355.41 277.05 367.07 268.01 367.99 C 258.96 368.91 259.29 359.56 262.00 355.00
C 265.20 349.60 271.32 348.46 278.00 348.00
C 290.74 347.13 300.42 352.31 312.00 355.00
C 314.24 355.25 317.82 355.50 320.00 355.00
C 326.10 349.14 343.67 344.59 344.00 356.00
C 349.65 351.12 340.99 348.57 337.00 348.00
C 335.04 347.72 332.97 348.21 331.00 348.00
C 331.84 346.89 333.46 345.97 335.00 346.00
C 343.02 343.75 351.35 348.32 349.25 356.25 C 347.16 364.19 332.77 362.97 340.00 357.00
C 327.91 359.72 342.16 367.46 347.75 361.75 C 353.35 356.04 353.43 349.07 346.69 345.31 C 339.96 341.54 331.98 344.81 326.00 348.00
C 326.21 345.81 325.81 343.24 324.00 342.00
C 322.32 340.85 322.15 341.85 321.00 342.00 Z"/>
</g>
<g fill="None" fill-opacity="0.0" stroke="#280C02" stroke-opacity="1.00" stroke-width="0.3"><path d="
M 250.00 342.00 
C 247.27 341.54 246.21 347.18 249.25 347.59 C 252.29 348.00 252.33 342.39 250.00 342.00 Z"/>
</g>
<g fill="None" fill-opacity="0.0" stroke="#402D17" stroke-opacity="1.00" stroke-width="0.3"><path d="
M 159.00 348.00 
C 162.00 348.00 165.00 348.00 168.00 348.00
C 167.56 347.07 166.04 346.24 165.00 346.00
C 164.13 345.93 160.03 347.64 159.00 348.00 Z"/>
</g>
<g fill="None" fill-opacity="0.0" stroke="#503211" stroke-opacity="1.00" stroke-width="0.3"><path d="
M 337.00 348.00 
C 336.58 347.83 335.49 346.12 335.00 346.00
C 333.46 345.97 331.84 346.89 331.00 348.00
C 332.97 348.21 335.04 347.72 337.00 348.00 Z"/>
</g>
<g fill="None" fill-opacity="0.0" stroke="#735725" stroke-opacity="1.00" stroke-width="0.3"><path d="
M 224.00 349.00 
C 227.85 351.43 231.38 352.03 235.00 355.00
C 235.89 355.38 236.77 354.94 237.00 355.00
C 234.10 350.36 229.47 348.54 224.00 348.00
C 224.00 348.00 223.77 348.86 224.00 349.00 Z"/>
</g>
<g fill="None" fill-opacity="0.0" stroke="#725A1F" stroke-opacity="1.00" stroke-width="0.3"><path d="
M 262.00 355.00 
C 261.93 355.02 263.30 355.29 264.00 355.00
C 267.41 352.22 271.57 350.85 278.00 349.00
C 278.00 349.00 277.96 348.00 278.00 348.00
C 271.32 348.46 265.20 349.60 262.00 355.00 Z"/>
</g>
<g fill="None" fill-opacity="0.0" stroke="#9D8953" stroke-opacity="1.00" stroke-width="0.3"><path d="
M 235.00 355.00 
C 231.38 352.03 227.85 351.43 224.00 349.00
C 213.75 348.06 204.07 352.28 197.00 359.00
C 202.35 358.63 205.89 353.94 211.00 353.00
C 207.57 356.81 209.08 364.58 215.97 361.97 C 222.86 359.36 212.50 352.90 216.00 360.00
C 206.57 360.27 211.39 353.08 217.78 351.78 C 224.17 350.47 229.10 352.49 235.00 355.00 Z"/>
</g>
<g fill="None" fill-opacity="0.0" stroke="#9F8C50" stroke-opacity="1.00" stroke-width="0.3"><path d="
M 264.00 355.00 
C 268.94 351.79 275.86 350.03 281.77 351.23 C 287.68 352.43 291.90 361.48 283.00 360.00
C 285.23 356.72 283.95 356.85 280.00 357.00
C 278.61 368.23 296.47 360.15 288.00 353.00
C 293.00 354.06 297.02 357.95 302.00 359.00
C 295.92 352.65 287.01 348.81 278.00 349.00
C 271.57 350.85 267.41 352.22 264.00 355.00 Z"/>
</g>
<g fill="None" fill-opacity="0.0" stroke="#4F4A18" stroke-opacity="1.00" stroke-width="0.3"><path d="
M 320.00 355.00 
C 317.82 355.50 314.24 355.25 312.00 355.00
C 314.91 355.68 316.96 356.15 320.00 355.00 Z"/>
</g>
<g fill="#000000" fill-opacity="1.00" stroke="None">
<path d="
M 0.00 500.00 
L 500.00 500.00
L 500.00 0.00
L 0.00 0.00
L 0.00 500.00
M 251.00 131.00 
C 255.18 135.99 260.04 140.89 265.00 145.00
C 260.95 148.22 255.91 159.90 250.75 161.75 C 245.59 163.60 240.35 147.34 235.00 147.00
C 238.87 140.92 244.86 134.49 251.00 131.00
M 249.00 174.00 
C 265.09 160.21 284.27 148.95 306.00 148.00
C 299.59 161.39 290.38 174.29 287.00 189.00
C 301.38 184.66 316.36 180.44 332.00 180.00
C 326.51 188.19 321.10 193.42 316.25 202.25 C 311.39 211.07 307.10 217.68 304.22 228.22 C 301.35 238.76 284.67 234.60 273.00 235.00 C 261.33 235.40 247.27 234.80 235.00 235.00 C 222.73 235.20 208.45 234.85 196.00 235.00
C 193.34 214.16 179.85 196.80 168.00 180.00
C 183.74 180.14 198.46 184.26 213.00 189.00
C 208.60 174.49 200.48 161.54 194.00 148.00
C 214.65 149.37 235.07 158.08 249.00 174.00
M 280.00 248.00 
C 262.06 250.56 238.89 250.16 221.00 248.00
C 213.40 247.85 206.83 245.77 200.00 243.00
C 232.27 241.33 267.81 241.33 300.00 243.00
C 293.39 244.70 287.21 248.31 280.00 248.00
M 297.00 270.00 
C 315.94 274.20 323.84 296.06 309.25 310.25 C 294.65 324.43 272.04 317.49 268.00 298.00
C 267.38 295.01 267.39 292.93 268.00 290.00
C 270.50 277.91 278.40 272.57 290.00 270.00
C 292.74 269.39 294.31 269.40 297.00 270.00
M 60.00 272.00 
C 58.02 272.83 58.96 272.07 58.00 274.00
C 56.64 279.07 57.55 287.74 58.00 293.00 C 58.45 298.26 55.70 308.36 58.00 313.00
C 62.92 319.82 80.83 312.94 80.00 304.00
C 84.57 313.00 79.08 318.73 70.00 317.00 C 60.92 315.27 53.89 318.30 45.00 317.00
C 53.01 315.06 49.87 303.28 50.00 296.00 C 50.13 288.72 51.52 277.81 48.00 272.00
C 46.55 271.87 44.60 272.28 45.00 270.00
C 51.33 270.00 57.67 270.00 64.00 270.00
C 63.51 271.83 61.65 272.18 60.00 272.00
M 100.00 272.00 
C 96.45 275.67 98.19 283.95 98.00 290.00 C 97.81 296.05 97.07 302.85 99.77 308.23 C 102.47 313.61 106.77 315.62 113.00 315.00 C 119.23 314.38 122.00 312.16 123.98 305.98 C 125.95 299.79 123.73 294.03 125.00 287.00 C 126.27 279.97 123.67 276.32 120.00 272.00
C 119.66 271.60 117.01 271.91 118.00 270.00
C 123.33 270.00 128.67 270.00 134.00 270.00
C 134.51 271.41 133.19 272.15 132.00 272.00
C 130.00 274.36 129.14 273.24 128.00 277.00
C 126.57 285.47 128.75 295.09 127.00 303.00
C 123.90 316.98 108.59 323.13 96.25 313.75 C 83.92 304.36 95.24 282.71 88.00 272.00
C 86.55 271.87 84.60 272.28 85.00 270.00
C 91.33 270.00 97.67 270.00 104.00 270.00
C 103.51 271.83 101.65 272.18 100.00 272.00
M 150.00 273.00 
C 153.32 278.09 155.24 286.32 161.00 289.00
C 163.05 283.33 172.03 278.45 168.00 272.00
C 166.55 271.87 164.60 272.28 165.00 270.00
C 170.33 270.00 175.67 270.00 181.00 270.00
C 181.51 271.41 180.19 272.15 179.00 272.00
C 172.79 277.85 164.63 283.16 161.00 292.00
C 168.33 299.26 170.56 313.71 182.00 316.00
C 177.25 318.26 170.51 316.38 165.00 317.00
C 169.39 314.46 164.52 308.54 162.23 305.77 C 159.94 303.00 157.66 295.17 154.00 299.00
C 154.45 289.13 145.02 277.86 137.00 272.00
C 136.58 271.56 134.07 271.94 135.00 270.00
C 140.67 270.00 146.33 270.00 152.00 270.00
C 152.82 272.01 150.18 271.47 150.00 273.00
M 218.00 276.00 
C 218.31 277.61 217.76 279.38 218.00 281.00
C 216.71 280.56 215.79 279.42 216.00 278.00
C 213.36 275.11 212.67 274.11 209.00 273.00
C 207.28 272.73 203.66 272.49 202.00 273.00
C 195.96 276.12 200.31 285.82 199.00 292.00
C 205.07 292.39 211.72 292.43 215.00 287.00
C 215.00 291.33 215.00 295.67 215.00 300.00
C 212.76 293.25 205.25 293.56 199.00 294.00
C 200.45 300.27 195.34 313.53 203.01 314.99 C 210.68 316.45 217.74 312.50 219.00 305.00
C 221.58 308.29 217.70 312.88 219.00 317.00
C 208.00 317.00 197.00 317.00 186.00 317.00
C 187.21 315.31 191.64 316.58 191.00 313.00
C 192.77 307.76 190.98 299.67 191.00 294.00 C 191.02 288.33 192.48 279.52 191.00 274.00
C 190.06 272.10 190.98 272.98 189.00 272.00
C 187.92 271.47 185.33 272.58 186.00 270.00
C 191.84 270.17 199.33 269.78 205.00 270.00 C 210.67 270.22 219.60 267.63 218.00 276.00
M 242.00 272.00 
C 237.16 276.78 239.07 287.42 239.00 295.00 C 238.93 302.58 236.25 314.92 245.00 315.00 C 253.75 315.07 259.84 312.80 261.00 304.00
C 263.21 307.42 261.42 312.82 262.00 317.00
C 250.00 317.00 238.00 317.00 226.00 317.00
C 227.21 315.31 231.64 316.58 231.00 313.00
C 232.77 307.76 230.98 299.67 231.00 294.00 C 231.02 288.33 232.48 279.52 231.00 274.00
C 230.11 272.20 231.07 272.77 229.00 272.00
C 227.59 271.47 224.44 272.96 225.00 270.00
C 231.67 270.00 238.33 270.00 245.00 270.00
C 245.64 272.03 243.31 272.06 242.00 272.00
M 366.00 283.00 
C 357.36 260.91 332.12 273.44 333.00 294.00 C 333.88 314.56 356.96 325.35 368.00 305.00
C 368.21 308.46 366.30 311.40 367.00 315.00
C 354.14 320.26 338.99 318.71 329.70 308.30 C 320.40 297.89 324.28 281.99 334.75 274.75 C 345.21 267.50 371.75 265.42 366.00 283.00
M 389.00 272.00 
C 384.40 276.65 388.30 285.76 387.00 292.00
C 391.78 286.16 405.41 278.96 402.00 272.00
C 400.55 271.87 398.60 272.28 399.00 270.00
C 405.33 270.00 411.67 270.00 418.00 270.00
C 418.51 271.41 417.19 272.15 416.00 272.00
C 412.54 273.96 406.46 273.59 403.75 277.75 C 401.05 281.91 397.17 283.65 394.00 287.00
C 401.60 296.64 407.61 312.00 420.00 316.00
C 403.16 323.33 398.46 301.01 388.00 293.00
C 387.56 300.23 383.09 314.73 392.00 317.00
C 386.00 317.00 380.00 317.00 374.00 317.00
C 375.21 315.31 379.64 316.58 379.00 313.00
C 380.86 307.48 378.65 299.97 379.00 294.00 C 379.35 288.03 379.74 280.02 379.00 274.00
C 378.87 272.94 379.14 272.45 378.00 272.00
C 376.61 271.45 373.42 272.97 374.00 270.00
C 380.33 270.00 386.67 270.00 393.00 270.00
C 393.63 272.53 390.47 271.90 389.00 272.00
M 426.00 311.00 
C 425.57 309.35 423.11 300.67 427.00 303.00
C 431.38 305.63 432.56 319.58 442.00 316.00 C 451.44 312.42 447.74 304.64 442.75 299.25 C 437.76 293.86 430.94 293.68 427.70 286.30 C 424.45 278.93 429.54 270.87 438.02 270.02 C 446.51 269.18 457.04 272.17 451.00 283.00
C 451.36 265.14 426.80 272.22 433.78 283.22 C 440.76 294.22 455.99 293.63 453.67 307.67 C 451.35 321.71 428.35 320.77 426.00 311.00
M 154.00 300.00 
C 151.27 304.98 142.68 312.45 150.00 317.00
C 145.17 316.35 139.01 318.31 135.00 316.00
C 144.35 315.50 146.76 303.21 154.00 300.00
M 250.00 338.00 
C 251.99 343.52 254.41 341.22 258.74 343.26 C 263.07 345.29 259.25 352.62 255.00 349.00
C 256.82 348.75 260.68 343.90 255.97 344.03 C 251.26 344.16 251.66 350.56 251.00 353.00
C 258.75 348.55 257.03 361.41 252.00 354.00
C 248.83 358.25 253.80 361.86 256.00 365.00
C 253.30 365.60 251.17 363.03 250.00 361.00
C 247.46 362.14 246.31 365.83 243.00 365.00
C 249.85 361.73 247.27 349.88 243.00 357.00
C 239.73 353.48 245.15 350.19 248.00 353.00
C 250.40 344.13 235.11 342.69 244.00 349.00
C 234.23 352.57 238.92 336.87 247.00 343.00
C 247.27 341.17 248.02 338.70 250.00 338.00
M 237.00 355.00 
C 236.77 354.94 235.89 355.38 235.00 355.00
C 229.10 352.49 224.17 350.47 217.78 351.78 C 211.39 353.08 206.57 360.27 216.00 360.00
C 212.50 352.90 222.86 359.36 215.97 361.97 C 209.08 364.58 207.57 356.81 211.00 353.00
C 205.89 353.94 202.35 358.63 197.00 359.00
C 204.07 352.28 213.75 348.06 224.00 349.00
C 223.77 348.86 224.00 348.00 224.00 348.00
C 211.15 346.84 196.61 352.52 185.78 355.78 C 174.94 359.03 158.82 338.08 155.00 356.00
C 150.45 353.81 155.22 347.64 159.00 348.00
C 160.03 347.64 164.13 345.93 165.00 346.00
C 156.47 343.99 148.97 347.28 150.00 356.00 C 151.03 364.72 166.56 362.67 159.00 357.00
C 170.80 359.21 157.63 367.45 151.77 362.23 C 145.91 357.00 145.08 350.19 151.75 345.75 C 158.42 341.32 167.19 344.45 173.00 348.00
C 170.87 338.66 187.95 336.69 186.00 347.00
C 184.49 337.08 169.51 344.17 176.25 350.75 C 183.00 357.32 190.50 351.60 197.68 349.68 C 204.85 347.76 215.37 344.60 223.00 346.00 C 230.63 347.40 237.48 349.53 240.32 356.68 C 243.16 363.83 236.17 374.39 226.93 369.07 C 217.68 363.76 234.73 351.22 234.00 365.00
C 231.03 355.32 221.62 366.03 230.03 367.97 C 238.44 369.92 241.53 359.08 237.00 355.00
M 324.00 342.00 
C 325.81 343.24 326.21 345.81 326.00 348.00
C 331.98 344.81 339.96 341.54 346.69 345.31 C 353.43 349.07 353.35 356.04 347.75 361.75 C 342.16 367.46 327.91 359.72 340.00 357.00
C 332.77 362.97 347.16 364.19 349.25 356.25 C 351.35 348.32 343.02 343.75 335.00 346.00
C 335.49 346.12 336.58 347.83 337.00 348.00
C 340.99 348.57 349.65 351.12 344.00 356.00
C 343.67 344.59 326.10 349.14 320.00 355.00
C 316.96 356.15 314.91 355.68 312.00 355.00
C 300.42 352.31 290.74 347.13 278.00 348.00
C 277.96 348.00 278.00 349.00 278.00 349.00
C 287.01 348.81 295.92 352.65 302.00 359.00
C 297.02 357.95 293.00 354.06 288.00 353.00
C 296.47 360.15 278.61 368.23 280.00 357.00
C 283.95 356.85 285.23 356.72 283.00 360.00
C 291.90 361.48 287.68 352.43 281.77 351.23 C 275.86 350.03 268.94 351.79 264.00 355.00
C 263.30 355.29 261.93 355.02 262.00 355.00
C 259.29 359.56 258.96 368.91 268.01 367.99 C 277.05 367.07 269.61 355.41 265.00 365.00
C 264.11 351.28 281.55 362.73 271.77 368.77 C 261.99 374.81 254.29 361.35 259.31 354.31 C 264.33 347.26 274.80 345.38 283.00 346.00 C 291.20 346.62 301.50 348.28 309.02 351.98 C 316.55 355.67 329.84 350.88 321.00 342.00
C 316.42 342.60 313.79 343.07 313.00 348.00
C 308.83 341.80 320.77 336.58 324.00 342.00 Z"/>
</g>
<g fill="#967939" fill-opacity="1.00" stroke="None">
<path d="
M 251.00 131.00 
C 244.86 134.49 238.87 140.92 235.00 147.00
C 240.35 147.34 245.59 163.60 250.75 161.75 C 255.91 159.90 260.95 148.22 265.00 145.00
C 260.04 140.89 255.18 135.99 251.00 131.00
M 251.00 141.00 
C 252.26 142.93 254.00 144.91 256.00 146.00
C 254.89 148.41 252.04 149.62 251.00 152.00
C 247.85 152.04 246.70 147.98 244.00 147.00
C 245.89 144.73 247.89 141.34 251.00 141.00 Z"/>
</g>
<g fill="#0C0301" fill-opacity="1.00" stroke="None">
<path d="
M 251.00 141.00 
C 247.89 141.34 245.89 144.73 244.00 147.00
C 246.70 147.98 247.85 152.04 251.00 152.00
C 252.04 149.62 254.89 148.41 256.00 146.00
C 254.00 144.91 252.26 142.93 251.00 141.00 Z"/>
</g>
<g fill="#977939" fill-opacity="1.00" stroke="None">
<path d="
M 249.00 174.00 
C 235.07 158.08 214.65 149.37 194.00 148.00
C 200.48 161.54 208.60 174.49 213.00 189.00
C 198.46 184.26 183.74 180.14 168.00 180.00
C 179.85 196.80 193.34 214.16 196.00 235.00
C 208.45 234.85 222.73 235.20 235.00 235.00 C 247.27 234.80 261.33 235.40 273.00 235.00 C 284.67 234.60 301.35 238.76 304.22 228.22 C 307.10 217.68 311.39 211.07 316.25 202.25 C 321.10 193.42 326.51 188.19 332.00 180.00
C 316.36 180.44 301.38 184.66 287.00 189.00
C 290.38 174.29 299.59 161.39 306.00 148.00
C 284.27 148.95 265.09 160.21 249.00 174.00
M 231.00 201.00 
C 216.24 191.16 215.49 171.61 207.00 157.00
C 220.13 159.50 227.80 165.41 239.08 172.92 C 250.37 180.42 235.64 192.54 231.00 201.00
M 293.00 157.00 
C 284.04 171.38 283.94 192.11 268.00 201.00
C 263.94 191.22 249.83 180.81 261.23 173.23 C 272.63 165.65 279.51 159.12 293.00 157.00
M 251.00 224.00 
C 244.92 220.58 245.40 215.58 239.75 210.25 C 234.09 204.93 241.76 200.13 243.77 193.77 C 245.78 187.41 252.89 184.71 255.25 191.75 C 257.61 198.79 264.61 202.46 261.74 208.74 C 258.88 215.03 252.75 217.22 251.00 224.00
M 221.00 228.00 
C 212.94 224.11 203.35 235.19 200.07 222.93 C 196.80 210.66 189.02 198.68 182.00 188.00
C 192.20 189.94 203.57 190.79 212.69 196.31 C 221.82 201.82 219.21 218.48 221.00 228.00
M 318.00 188.00 
C 309.67 200.43 301.67 213.50 298.00 228.00
C 291.67 228.00 285.33 228.00 279.00 228.00
C 280.75 218.59 277.63 202.46 286.70 196.70 C 295.76 190.94 307.78 190.48 318.00 188.00
M 273.00 213.00 
C 270.73 209.73 271.03 206.60 274.00 204.00
C 275.90 206.15 274.04 210.84 273.00 213.00
M 226.00 213.00 
C 226.03 210.26 224.37 207.92 225.00 205.00
C 229.16 206.47 229.16 210.69 226.00 213.00
M 234.00 213.00 
C 236.90 218.31 241.58 222.43 244.00 228.00
C 239.00 228.00 234.00 228.00 229.00 228.00
C 229.93 222.89 231.67 217.36 234.00 213.00
M 267.00 215.00 
C 267.96 219.43 270.03 223.54 271.00 228.00
C 266.00 228.00 261.00 228.00 256.00 228.00
C 259.05 223.45 261.57 216.92 267.00 215.00 Z"/>
</g>
<g fill="#030201" fill-opacity="1.00" stroke="None">
<path d="
M 231.00 201.00 
C 235.64 192.54 250.37 180.42 239.08 172.92 C 227.80 165.41 220.13 159.50 207.00 157.00
C 215.49 171.61 216.24 191.16 231.00 201.00 Z"/>
</g>
<g fill="#030201" fill-opacity="1.00" stroke="None">
<path d="
M 293.00 157.00 
C 279.51 159.12 272.63 165.65 261.23 173.23 C 249.83 180.81 263.94 191.22 268.00 201.00
C 283.94 192.11 284.04 171.38 293.00 157.00 Z"/>
</g>
<g fill="#040201" fill-opacity="1.00" stroke="None">
<path d="
M 251.00 224.00 
C 252.75 217.22 258.88 215.03 261.74 208.74 C 264.61 202.46 257.61 198.79 255.25 191.75 C 252.89 184.71 245.78 187.41 243.77 193.77 C 241.76 200.13 234.09 204.93 239.75 210.25 C 245.40 215.58 244.92 220.58 251.00 224.00 Z"/>
</g>
<g fill="#020101" fill-opacity="1.00" stroke="None">
<path d="
M 221.00 228.00 
C 219.21 218.48 221.82 201.82 212.69 196.31 C 203.57 190.79 192.20 189.94 182.00 188.00
C 189.02 198.68 196.80 210.66 200.07 222.93 C 203.35 235.19 212.94 224.11 221.00 228.00 Z"/>
</g>
<g fill="#030101" fill-opacity="1.00" stroke="None">
<path d="
M 318.00 188.00 
C 307.78 190.48 295.76 190.94 286.70 196.70 C 277.63 202.46 280.75 218.59 279.00 228.00
C 285.33 228.00 291.67 228.00 298.00 228.00
C 301.67 213.50 309.67 200.43 318.00 188.00 Z"/>
</g>
<g fill="#381D03" fill-opacity="1.00" stroke="None">
<path d="
M 273.00 213.00 
C 274.04 210.84 275.90 206.15 274.00 204.00
C 271.03 206.60 270.73 209.73 273.00 213.00 Z"/>
</g>
<g fill="#281001" fill-opacity="1.00" stroke="None">
<path d="
M 226.00 213.00 
C 229.16 210.69 229.16 206.47 225.00 205.00
C 224.37 207.92 226.03 210.26 226.00 213.00 Z"/>
</g>
<g fill="#0B0301" fill-opacity="1.00" stroke="None">
<path d="
M 234.00 213.00 
C 231.67 217.36 229.93 222.89 229.00 228.00
C 234.00 228.00 239.00 228.00 244.00 228.00
C 241.58 222.43 236.90 218.31 234.00 213.00 Z"/>
</g>
<g fill="#0C0201" fill-opacity="1.00" stroke="None">
<path d="
M 267.00 215.00 
C 261.57 216.92 259.05 223.45 256.00 228.00
C 261.00 228.00 266.00 228.00 271.00 228.00
C 270.03 223.54 267.96 219.43 267.00 215.00 Z"/>
</g>
<g fill="#9B7D38" fill-opacity="1.00" stroke="None">
<path d="
M 221.00 248.00 
C 240.55 248.39 260.46 248.75 280.00 248.00
C 287.21 248.31 293.39 244.70 300.00 243.00
C 267.81 241.33 232.27 241.33 200.00 243.00
C 206.83 245.77 213.40 247.85 221.00 248.00 Z"/>
</g>
<g fill="#544125" fill-opacity="1.00" stroke="None">
<path d="
M 280.00 248.00 
C 260.46 248.75 240.55 248.39 221.00 248.00
C 238.89 250.16 262.06 250.56 280.00 248.00 Z"/>
</g>
<g fill="#311F01" fill-opacity="1.00" stroke="None">
<path d="
M 290.00 270.00 
C 292.19 269.79 294.81 269.79 297.00 270.00
C 294.31 269.40 292.74 269.39 290.00 270.00 Z"/>
</g>
<g fill="#4F411F" fill-opacity="1.00" stroke="None">
<path d="
M 48.00 272.00 
C 50.05 272.18 57.97 272.11 60.00 272.00
C 61.65 272.18 63.51 271.83 64.00 270.00
C 57.67 270.00 51.33 270.00 45.00 270.00
C 44.60 272.28 46.55 271.87 48.00 272.00 Z"/>
</g>
<g fill="#4E411F" fill-opacity="1.00" stroke="None">
<path d="
M 88.00 272.00 
C 90.05 272.18 97.97 272.11 100.00 272.00
C 101.65 272.18 103.51 271.83 104.00 270.00
C 97.67 270.00 91.33 270.00 85.00 270.00
C 84.60 272.28 86.55 271.87 88.00 272.00 Z"/>
</g>
<g fill="#4C4018" fill-opacity="1.00" stroke="None">
<path d="
M 120.00 272.00 
C 121.00 272.16 131.08 272.15 132.00 272.00
C 133.19 272.15 134.51 271.41 134.00 270.00
C 128.67 270.00 123.33 270.00 118.00 270.00
C 117.01 271.91 119.66 271.60 120.00 272.00 Z"/>
</g>
<g fill="#4D401B" fill-opacity="1.00" stroke="None">
<path d="
M 137.00 272.00 
C 141.46 272.71 147.25 268.78 150.00 273.00
C 150.18 271.47 152.82 272.01 152.00 270.00
C 146.33 270.00 140.67 270.00 135.00 270.00
C 134.07 271.94 136.58 271.56 137.00 272.00 Z"/>
</g>
<g fill="#4E401C" fill-opacity="1.00" stroke="None">
<path d="
M 168.00 272.00 
C 169.20 272.11 178.01 272.16 179.00 272.00
C 180.19 272.15 181.51 271.41 181.00 270.00
C 175.67 270.00 170.33 270.00 165.00 270.00
C 164.60 272.28 166.55 271.87 168.00 272.00 Z"/>
</g>
<g fill="#665322" fill-opacity="1.00" stroke="None">
<path d="
M 189.00 272.00 
C 197.16 272.72 208.02 269.38 217.00 271.00
C 217.00 272.67 217.00 274.33 217.00 276.00
C 217.20 275.76 218.00 276.00 218.00 276.00
C 219.60 267.63 210.67 270.22 205.00 270.00 C 199.33 269.78 191.84 270.17 186.00 270.00
C 185.33 272.58 187.92 271.47 189.00 272.00 Z"/>
</g>
<g fill="#483D1A" fill-opacity="1.00" stroke="None">
<path d="
M 229.00 272.00 
C 231.53 272.10 239.63 272.21 242.00 272.00
C 243.31 272.06 245.64 272.03 245.00 270.00
C 238.33 270.00 231.67 270.00 225.00 270.00
C 224.44 272.96 227.59 271.47 229.00 272.00 Z"/>
</g>
<g fill="#B69448" fill-opacity="1.00" stroke="None">
<path d="
M 268.00 290.00 
C 267.77 292.52 267.77 295.48 268.00 298.00
C 272.04 317.49 294.65 324.43 309.25 310.25 C 323.84 296.06 315.94 274.20 297.00 270.00
C 294.81 269.79 292.19 269.79 290.00 270.00
C 278.40 272.57 270.50 277.91 268.00 290.00
M 276.00 296.00 
C 275.43 292.81 275.49 290.11 276.00 287.00
C 276.81 272.04 294.92 267.32 303.25 277.75 C 311.58 288.18 313.31 303.73 302.25 313.25 C 291.18 322.77 276.83 308.13 276.00 296.00 Z"/>
</g>
<g fill="#AE9149" fill-opacity="1.00" stroke="None">
<path d="
M 366.00 283.00 
C 371.75 265.42 345.21 267.50 334.75 274.75 C 324.28 281.99 320.40 297.89 329.70 308.30 C 338.99 318.71 354.14 320.26 367.00 315.00
C 366.30 311.40 368.21 308.46 368.00 305.00
C 356.96 325.35 333.88 314.56 333.00 294.00 C 332.12 273.44 357.36 260.91 366.00 283.00 Z"/>
</g>
<g fill="#514523" fill-opacity="1.00" stroke="None">
<path d="
M 378.00 272.00 
C 380.15 272.08 386.92 272.08 389.00 272.00
C 390.47 271.90 393.63 272.53 393.00 270.00
C 386.67 270.00 380.33 270.00 374.00 270.00
C 373.42 272.97 376.61 271.45 378.00 272.00 Z"/>
</g>
<g fill="#4C401B" fill-opacity="1.00" stroke="None">
<path d="
M 402.00 272.00 
C 404.07 272.18 414.15 272.30 416.00 272.00
C 417.19 272.15 418.51 271.41 418.00 270.00
C 411.67 270.00 405.33 270.00 399.00 270.00
C 398.60 272.28 400.55 271.87 402.00 272.00 Z"/>
</g>
<g fill="#B4944B" fill-opacity="1.00" stroke="None">
<path d="
M 427.00 303.00 
C 425.55 304.70 425.67 308.59 426.00 311.00
C 428.35 320.77 451.35 321.71 453.67 307.67 C 455.99 293.63 440.76 294.22 433.78 283.22 C 426.80 272.22 451.36 265.14 451.00 283.00
C 457.04 272.17 446.51 269.18 438.02 270.02 C 429.54 270.87 424.45 278.93 427.70 286.30 C 430.94 293.68 437.76 293.86 442.75 299.25 C 447.74 304.64 451.44 312.42 442.00 316.00 C 432.56 319.58 431.38 305.63 427.00 303.00 Z"/>
</g>
<g fill="#B8944B" fill-opacity="1.00" stroke="None">
<path d="
M 48.00 272.00 
C 51.52 277.81 50.13 288.72 50.00 296.00 C 49.87 303.28 53.01 315.06 45.00 317.00
C 53.89 318.30 60.92 315.27 70.00 317.00 C 79.08 318.73 84.57 313.00 80.00 304.00
C 80.83 312.94 62.92 319.82 58.00 313.00
C 55.00 308.85 57.20 299.48 57.00 294.00 C 56.80 288.52 55.71 278.61 58.00 274.00
C 58.96 272.07 58.02 272.83 60.00 272.00
C 57.97 272.11 50.05 272.18 48.00 272.00 Z"/>
</g>
<g fill="#AF8F48" fill-opacity="1.00" stroke="None">
<path d="
M 88.00 272.00 
C 95.24 282.71 83.92 304.36 96.25 313.75 C 108.59 323.13 123.90 316.98 127.00 303.00
C 127.88 294.47 125.65 284.74 128.00 277.00
C 129.14 273.24 130.00 274.36 132.00 272.00
C 131.08 272.15 121.00 272.16 120.00 272.00
C 123.67 276.32 126.27 279.97 125.00 287.00 C 123.73 294.03 125.95 299.79 123.98 305.98 C 122.00 312.16 119.23 314.38 113.00 315.00 C 106.77 315.62 102.47 313.61 99.77 308.23 C 97.07 302.85 97.81 296.05 98.00 290.00 C 98.19 283.95 96.45 275.67 100.00 272.00
C 97.97 272.11 90.05 272.18 88.00 272.00 Z"/>
</g>
<g fill="#B5934A" fill-opacity="1.00" stroke="None">
<path d="
M 137.00 272.00 
C 145.02 277.86 154.45 289.13 154.00 299.00
C 157.66 295.17 159.94 303.00 162.23 305.77 C 164.52 308.54 169.39 314.46 165.00 317.00
C 170.51 316.38 177.25 318.26 182.00 316.00
C 170.56 313.71 168.33 299.26 161.00 292.00
C 164.63 283.16 172.79 277.85 179.00 272.00
C 178.01 272.16 169.20 272.11 168.00 272.00
C 172.03 278.45 163.05 283.33 161.00 289.00
C 155.24 286.32 153.32 278.09 150.00 273.00
C 147.25 268.78 141.46 272.71 137.00 272.00 Z"/>
</g>
<g fill="#B3944B" fill-opacity="1.00" stroke="None">
<path d="
M 189.00 272.00 
C 190.98 272.98 190.06 272.10 191.00 274.00
C 193.39 278.82 192.09 287.19 192.00 293.00 C 191.91 298.81 193.50 308.16 191.00 313.00
C 191.64 316.58 187.21 315.31 186.00 317.00
C 197.00 317.00 208.00 317.00 219.00 317.00
C 217.70 312.88 221.58 308.29 219.00 305.00
C 217.74 312.50 210.68 316.45 203.01 314.99 C 195.34 313.53 200.45 300.27 199.00 294.00
C 205.25 293.56 212.76 293.25 215.00 300.00
C 215.00 295.67 215.00 291.33 215.00 287.00
C 211.72 292.43 205.07 292.39 199.00 292.00
C 200.31 285.82 195.96 276.12 202.00 273.00
C 204.67 271.62 206.45 272.23 209.00 273.00
C 212.67 274.11 213.36 275.11 216.00 278.00
C 215.95 278.69 217.28 275.65 217.00 276.00
C 217.00 274.33 217.00 272.67 217.00 271.00
C 208.02 269.38 197.16 272.72 189.00 272.00 Z"/>
</g>
<g fill="#B6954A" fill-opacity="1.00" stroke="None">
<path d="
M 229.00 272.00 
C 231.07 272.77 230.11 272.20 231.00 274.00
C 233.39 278.82 232.09 287.19 232.00 293.00 C 231.91 298.81 233.50 308.16 231.00 313.00
C 231.64 316.58 227.21 315.31 226.00 317.00
C 238.00 317.00 250.00 317.00 262.00 317.00
C 261.42 312.82 263.21 307.42 261.00 304.00
C 259.84 312.80 253.75 315.07 245.00 315.00 C 236.25 314.92 238.93 302.58 239.00 295.00 C 239.07 287.42 237.16 276.78 242.00 272.00
C 239.63 272.21 231.53 272.10 229.00 272.00 Z"/>
</g>
<g fill="#B6964B" fill-opacity="1.00" stroke="None">
<path d="
M 378.00 272.00 
C 379.14 272.45 378.87 272.94 379.00 274.00
C 381.07 279.07 380.23 287.06 380.00 293.00 C 379.77 298.94 381.57 308.03 379.00 313.00
C 379.64 316.58 375.21 315.31 374.00 317.00
C 380.00 317.00 386.00 317.00 392.00 317.00
C 383.09 314.73 387.56 300.23 388.00 293.00
C 398.46 301.01 403.16 323.33 420.00 316.00
C 407.61 312.00 401.60 296.64 394.00 287.00
C 397.17 283.65 401.05 281.91 403.75 277.75 C 406.46 273.59 412.54 273.96 416.00 272.00
C 414.15 272.30 404.07 272.18 402.00 272.00
C 405.41 278.96 391.78 286.16 387.00 292.00
C 388.30 285.76 384.40 276.65 389.00 272.00
C 386.92 272.08 380.15 272.08 378.00 272.00 Z"/>
</g>
<g fill="#584F28" fill-opacity="1.00" stroke="None">
<path d="
M 202.00 273.00 
C 203.66 272.49 207.28 272.73 209.00 273.00
C 206.45 272.23 204.67 271.62 202.00 273.00 Z"/>
</g>
<g fill="#010101" fill-opacity="1.00" stroke="None">
<path d="
M 276.00 287.00 
C 275.84 289.92 275.80 293.08 276.00 296.00
C 276.83 308.13 291.18 322.77 302.25 313.25 C 313.31 303.73 311.58 288.18 303.25 277.75 C 294.92 267.32 276.81 272.04 276.00 287.00 Z"/>
</g>
<g fill="#57450D" fill-opacity="1.00" stroke="None">
<path d="
M 58.00 313.00 
C 55.70 308.36 58.45 298.26 58.00 293.00 C 57.55 287.74 56.64 279.07 58.00 274.00
C 55.71 278.61 56.80 288.52 57.00 294.00 C 57.20 299.48 55.00 308.85 58.00 313.00 Z"/>
</g>
<g fill="#5D4E2A" fill-opacity="1.00" stroke="None">
<path d="
M 191.00 313.00 
C 193.50 308.16 191.91 298.81 192.00 293.00 C 192.09 287.19 193.39 278.82 191.00 274.00
C 192.48 279.52 191.02 288.33 191.00 294.00 C 190.98 299.67 192.77 307.76 191.00 313.00 Z"/>
</g>
<g fill="#634C23" fill-opacity="1.00" stroke="None">
<path d="
M 231.00 313.00 
C 233.50 308.16 231.91 298.81 232.00 293.00 C 232.09 287.19 233.39 278.82 231.00 274.00
C 232.48 279.52 231.02 288.33 231.00 294.00 C 230.98 299.67 232.77 307.76 231.00 313.00 Z"/>
</g>
<g fill="#52401C" fill-opacity="1.00" stroke="None">
<path d="
M 379.00 313.00 
C 381.57 308.03 379.77 298.94 380.00 293.00 C 380.23 287.06 381.07 279.07 379.00 274.00
C 379.74 280.02 379.35 288.03 379.00 294.00 C 378.65 299.97 380.86 307.48 379.00 313.00 Z"/>
</g>
<g fill="#7D7351" fill-opacity="1.00" stroke="None">
<path d="
M 216.00 278.00 
C 215.79 279.42 216.71 280.56 218.00 281.00
C 217.76 279.38 218.31 277.61 218.00 276.00
C 218.00 276.00 217.20 275.76 217.00 276.00
C 217.28 275.65 215.95 278.69 216.00 278.00 Z"/>
</g>
<g fill="#453000" fill-opacity="1.00" stroke="None">
<path d="
M 127.00 303.00 
C 128.75 295.09 126.57 285.47 128.00 277.00
C 125.65 284.74 127.88 294.47 127.00 303.00 Z"/>
</g>
<g fill="#624C1A" fill-opacity="1.00" stroke="None">
<path d="
M 276.00 296.00 
C 275.80 293.08 275.84 289.92 276.00 287.00
C 275.49 290.11 275.43 292.81 276.00 296.00 Z"/>
</g>
<g fill="#614A28" fill-opacity="1.00" stroke="None">
<path d="
M 268.00 298.00 
C 267.77 295.48 267.77 292.52 268.00 290.00
C 267.39 292.93 267.38 295.01 268.00 298.00 Z"/>
</g>
<g fill="#A48D59" fill-opacity="1.00" stroke="None">
<path d="
M 154.00 300.00 
C 146.76 303.21 144.35 315.50 135.00 316.00
C 139.01 318.31 145.17 316.35 150.00 317.00
C 142.68 312.45 151.27 304.98 154.00 300.00 Z"/>
</g>
<g fill="#382816" fill-opacity="1.00" stroke="None">
<path d="
M 426.00 311.00 
C 425.67 308.59 425.55 304.70 427.00 303.00
C 423.11 300.67 425.57 309.35 426.00 311.00 Z"/>
</g>
<g fill="#A08850" fill-opacity="1.00" stroke="None">
<path d="
M 250.00 338.00 
C 248.02 338.70 247.27 341.17 247.00 343.00
C 238.92 336.87 234.23 352.57 244.00 349.00
C 235.11 342.69 250.40 344.13 248.00 353.00
C 245.15 350.19 239.73 353.48 243.00 357.00
C 247.27 349.88 249.85 361.73 243.00 365.00
C 246.31 365.83 247.46 362.14 250.00 361.00
C 251.17 363.03 253.30 365.60 256.00 365.00
C 253.80 361.86 248.83 358.25 252.00 354.00
C 257.03 361.41 258.75 348.55 251.00 353.00
C 251.66 350.56 251.26 344.16 255.97 344.03 C 260.68 343.90 256.82 348.75 255.00 349.00
C 259.25 352.62 263.07 345.29 258.74 343.26 C 254.41 341.22 251.99 343.52 250.00 338.00
M 250.00 342.00 
C 252.33 342.39 252.29 348.00 249.25 347.59 C 246.21 347.18 247.27 341.54 250.00 342.00 Z"/>
</g>
<g fill="#9A8A52" fill-opacity="1.00" stroke="None">
<path d="
M 165.00 346.00 
C 166.04 346.24 167.56 347.07 168.00 348.00
C 165.00 348.00 162.00 348.00 159.00 348.00
C 155.22 347.64 150.45 353.81 155.00 356.00
C 158.82 338.08 174.94 359.03 185.78 355.78 C 196.61 352.52 211.15 346.84 224.00 348.00
C 229.47 348.54 234.10 350.36 237.00 355.00
C 241.53 359.08 238.44 369.92 230.03 367.97 C 221.62 366.03 231.03 355.32 234.00 365.00
C 234.73 351.22 217.68 363.76 226.93 369.07 C 236.17 374.39 243.16 363.83 240.32 356.68 C 237.48 349.53 230.63 347.40 223.00 346.00 C 215.37 344.60 204.85 347.76 197.68 349.68 C 190.50 351.60 183.00 357.32 176.25 350.75 C 169.51 344.17 184.49 337.08 186.00 347.00
C 187.95 336.69 170.87 338.66 173.00 348.00
C 167.19 344.45 158.42 341.32 151.75 345.75 C 145.08 350.19 145.91 357.00 151.77 362.23 C 157.63 367.45 170.80 359.21 159.00 357.00
C 166.56 362.67 151.03 364.72 150.00 356.00 C 148.97 347.28 156.47 343.99 165.00 346.00 Z"/>
</g>
<g fill="#6B6544" fill-opacity="1.00" stroke="None">
<path d="
M 321.00 342.00 
C 322.15 341.85 322.32 340.85 324.00 342.00
C 320.77 336.58 308.83 341.80 313.00 348.00
C 313.79 343.07 316.42 342.60 321.00 342.00 Z"/>
</g>
<g fill="#9E8A53" fill-opacity="1.00" stroke="None">
<path d="
M 321.00 342.00 
C 329.84 350.88 316.55 355.67 309.02 351.98 C 301.50 348.28 291.20 346.62 283.00 346.00 C 274.80 345.38 264.33 347.26 259.31 354.31 C 254.29 361.35 261.99 374.81 271.77 368.77 C 281.55 362.73 264.11 351.28 265.00 365.00
C 269.61 355.41 277.05 367.07 268.01 367.99 C 258.96 368.91 259.29 359.56 262.00 355.00
C 265.20 349.60 271.32 348.46 278.00 348.00
C 290.74 347.13 300.42 352.31 312.00 355.00
C 314.24 355.25 317.82 355.50 320.00 355.00
C 326.10 349.14 343.67 344.59 344.00 356.00
C 349.65 351.12 340.99 348.57 337.00 348.00
C 335.04 347.72 332.97 348.21 331.00 348.00
C 331.84 346.89 333.46 345.97 335.00 346.00
C 343.02 343.75 351.35 348.32 349.25 356.25 C 347.16 364.19 332.77 362.97 340.00 357.00
C 327.91 359.72 342.16 367.46 347.75 361.75 C 353.35 356.04 353.43 349.07 346.69 345.31 C 339.96 341.54 331.98 344.81 326.00 348.00
C 326.21 345.81 325.81 343.24 324.00 342.00
C 322.32 340.85 322.15 341.85 321.00 342.00 Z"/>
</g>
<g fill="#280C02" fill-opacity="1.00" stroke="None">
<path d="
M 250.00 342.00 
C 247.27 341.54 246.21 347.18 249.25 347.59 C 252.29 348.00 252.33 342.39 250.00 342.00 Z"/>
</g>
<g fill="#402D17" fill-opacity="1.00" stroke="None">
<path d="
M 159.00 348.00 
C 162.00 348.00 165.00 348.00 168.00 348.00
C 167.56 347.07 166.04 346.24 165.00 346.00
C 164.13 345.93 160.03 347.64 159.00 348.00 Z"/>
</g>
<g fill="#503211" fill-opacity="1.00" stroke="None">
<path d="
M 337.00 348.00 
C 336.58 347.83 335.49 346.12 335.00 346.00
C 333.46 345.97 331.84 346.89 331.00 348.00
C 332.97 348.21 335.04 347.72 337.00 348.00 Z"/>
</g>
<g fill="#735725" fill-opacity="1.00" stroke="None">
<path d="
M 224.00 349.00 
C 227.85 351.43 231.38 352.03 235.00 355.00
C 235.89 355.38 236.77 354.94 237.00 355.00
C 234.10 350.36 229.47 348.54 224.00 348.00
C 224.00 348.00 223.77 348.86 224.00 349.00 Z"/>
</g>
<g fill="#725A1F" fill-opacity="1.00" stroke="None">
<path d="
M 262.00 355.00 
C 261.93 355.02 263.30 355.29 264.00 355.00
C 267.41 352.22 271.57 350.85 278.00 349.00
C 278.00 349.00 277.96 348.00 278.00 348.00
C 271.32 348.46 265.20 349.60 262.00 355.00 Z"/>
</g>
<g fill="#9D8953" fill-opacity="1.00" stroke="None">
<path d="
M 235.00 355.00 
C 231.38 352.03 227.85 351.43 224.00 349.00
C 213.75 348.06 204.07 352.28 197.00 359.00
C 202.35 358.63 205.89 353.94 211.00 353.00
C 207.57 356.81 209.08 364.58 215.97 361.97 C 222.86 359.36 212.50 352.90 216.00 360.00
C 206.57 360.27 211.39 353.08 217.78 351.78 C 224.17 350.47 229.10 352.49 235.00 355.00 Z"/>
</g>
<g fill="#9F8C50" fill-opacity="1.00" stroke="None">
<path d="
M 264.00 355.00 
C 268.94 351.79 275.86 350.03 281.77 351.23 C 287.68 352.43 291.90 361.48 283.00 360.00
C 285.23 356.72 283.95 356.85 280.00 357.00
C 278.61 368.23 296.47 360.15 288.00 353.00
C 293.00 354.06 297.02 357.95 302.00 359.00
C 295.92 352.65 287.01 348.81 278.00 349.00
C 271.57 350.85 267.41 352.22 264.00 355.00 Z"/>
</g>
<g fill="#4F4A18" fill-opacity="1.00" stroke="None">
<path d="
M 320.00 355.00 
C 317.82 355.50 314.24 355.25 312.00 355.00
C 314.91 355.68 316.96 356.15 320.00 355.00 Z"/>
</g>
</svg>